<?xml version="1.0" encoding="utf-8"?>
<!-- Generator: Adobe Illustrator 25.3.0, SVG Export Plug-In . SVG Version: 6.00 Build 0)  -->
<svg version="1.1" id="Capa_1" xmlns="http://www.w3.org/2000/svg" xmlns:xlink="http://www.w3.org/1999/xlink" x="0px" y="0px"
	 viewBox="0 0 689 216" style="enable-background:new 0 0 689 216;" xml:space="preserve">
<style type="text/css">
	.st0{fill:none;}
	.st1{fill:url(#SVGID_1_);}
	.st2{fill:#FFFFFF;}
	.st3{enable-background:new    ;}
</style>
<g>
	<g>
		<path class="st0" d="M120,138.3c0.5-0.3,1-0.6,1.6-0.6c0.5-0.1,1.6-0.2,2.7-0.2c-1.1,0.1-2.2,0.2-2.7,0.2
			C121.1,137.8,120.5,138,120,138.3z"/>
		<path class="st0" d="M116.9,131.6L116.9,131.6c-0.2,1.3-0.8,2.3-1.6,3.4l0,0C116.1,134,116.7,133,116.9,131.6z"/>
		<path class="st0" d="M125.6,137.4c-0.2,0-0.3,0-0.5,0C125.2,137.4,125.4,137.4,125.6,137.4z"/>
		<path class="st0" d="M118.3,139.8c0.1-0.2,0.2-0.3,0.3-0.5c1.2,0.9,2.2,1.8,3.4,2.6l0,0c-1.1-0.8-2.2-1.7-3.4-2.6
			C118.5,139.5,118.4,139.7,118.3,139.8z"/>
		<path class="st0" d="M127.6,137.3c-0.4,0-0.9,0.1-1.4,0.1C126.7,137.4,127.1,137.3,127.6,137.3z"/>
		<path class="st0" d="M116.5,141.4c-0.5-0.6-0.9-1.3-1.3-2c-0.5,0.4-1.1,0.9-1.6,1.2c-0.5,0.4-1,0.8-1.5,1.2
			c-0.1,0-0.1-0.1-0.2-0.2l0,0c0.1,0.1,0.1,0.2,0.2,0.2c0.5-0.4,1-0.8,1.5-1.2s1.1-0.8,1.6-1.2C115.6,140.2,116,140.8,116.5,141.4
			c0.2,0.3,0.3,0.6,0.4,0.9c0-0.1,0.1-0.1,0.1-0.2c0,0.1-0.1,0.1-0.1,0.2C116.7,142.1,116.6,141.7,116.5,141.4z"/>
		<path class="st0" d="M111.3,137.6c-1.1-0.1-4.5-0.4-5.5-0.5l0,0C106.9,137.2,110.2,137.4,111.3,137.6c1,0,2.1,0.2,3,1.1
			c-0.3,0.4-0.6,0.8-1,1.1c0.3-0.4,0.7-0.7,1-1.1C113.4,137.7,112.3,137.6,111.3,137.6z"/>
		<path class="st0" d="M106.6,137L106.6,137L106.6,137z"/>
		<path class="st0" d="M107.3,137c0.4,0,0.8,0,1.2-0.1C108.1,136.9,107.7,136.9,107.3,137z"/>
		<path class="st0" d="M129.4,137.1L129.4,137.1c-0.2,0-0.4,0-0.6,0.1C129,137.2,129.2,137.2,129.4,137.1z"/>
		<path class="st0" d="M122.1,132.4c-0.2,0.1-0.4,0.3-0.6,0.4C121.8,132.6,121.9,132.5,122.1,132.4L122.1,132.4z"/>
		<path class="st0" d="M128.3,137.2c-0.1,0-0.3,0-0.4,0C128,137.3,128.2,137.2,128.3,137.2z"/>
		<path class="st0" d="M111.6,132.4L111.6,132.4c1,1.1,1.9,2.2,2.8,3.3l0,0C113.5,134.6,112.6,133.5,111.6,132.4z"/>
		
			<linearGradient id="SVGID_1_" gradientUnits="userSpaceOnUse" x1="36.8073" y1="-739.3834" x2="93.9771" y2="-639.4331" gradientTransform="matrix(1 0 0 1 0 784)">
			<stop  offset="5.193929e-02" style="stop-color:#00E4E3"/>
			<stop  offset="0.2033" style="stop-color:#6A4FEB"/>
			<stop  offset="0.5057" style="stop-color:#FFFFFF"/>
		</linearGradient>
		<path class="st1" d="M17.4,184.5c0.1,0.1,0.1,0.1,0.2,0.1c0.2-0.2,0.5-0.4,0.7-0.6c4-4,8.1-8.1,12.2-12.1
			c7.3-7.3,14.6-14.6,21.9-21.8c9.9-9.8,19.7-19.6,29.6-29.5c7-7,14-13.9,20.9-20.8c2.6-2.6,5.3-5.2,7.9-7.8
			c7.2-7.1,14.3-14.2,21.4-21.3c0.4-0.4,0.5-0.8,0.3-1.3c-0.1-0.2-0.1-0.3-0.1-0.5L118.8,19c-0.6-5.9-3.1-12.5-9.4-19
			c3.8,9.2,3.8,15.5,2.9,20.6C80.5,75.4,48.9,130,17.4,184.5z"/>
		<path class="st2" d="M79.2,162.1c0.7,0.5,60.9,16.6,61.9,16.6c-17.8-10.3-35.5-20.4-53.3-30.6c10.3-17.7,20.4-35.3,30.6-52.8
			c0,0,0-0.1-0.1-0.1l-0.1-0.1c-2.4,2.1-58.9,58.5-59.4,59.4c0.5,0,0.9,0,1.2,0c10.1,0,20.3,0,30.4,0c0.7,0,1.2,0.2,1.8,0.5
			c3.8,2.2,7.5,4.3,11.4,6.5c0.3,0.1,0.5,0.3,0.7,0.5c0,0.1-0.1,0.1-0.1,0.2C96,162.1,87.7,162.1,79.2,162.1z"/>
		<path class="st2" d="M207.7,204.7L207.7,204.7c-0.2-0.2-0.4-0.2-0.7-0.3c-3.2-0.9-6.5-1.8-9.8-2.6c-23-6.2-46-12.3-68.9-18.4
			c-25.6-6.8-51.3-13.7-76.9-20.5c-0.7-0.2-1.2-0.1-1.8,0.5c-4.3,4.3-8.7,8.7-13.1,13.1c-2.7,2.7-5.4,5.4-8.2,8.1
			c-2.9,2.9-5.9,5.9-8.8,8.8c-5.9,5.1-8.3,11.7-24.6,13.8c14.8,0.8,23.7-0.3,29.1-2.3C85.5,204.7,146.6,204.7,207.7,204.7z"/>
		<path class="st2" d="M136.1,54.1c6.9,25.6,13.8,51.2,20.6,76.8c4.9,18.4,9.9,36.8,14.8,55.2c0.2,0.7,0.5,1,1.2,1.2
			c15.1,4,30.2,8.1,45.3,12.1c5,2.6,10.5,6.6,15.6,16.6c-0.5-5.5-2-9.9-4-13.5l0,0l0,0c-0.2-0.2-0.3-0.5-0.4-0.7L130,30.4
			c-0.1,0.4-0.1,0.7,0.1,1C132.1,38.9,134.1,46.5,136.1,54.1z"/>
		<path class="st2" d="M162.6,182c-7.3-26.9-14.5-53.9-21.7-80.8c-0.1,0-0.2,0-0.3,0c0,20.3,0,40.6,0,61c-1.6,0-3.2,0.1-4.7,0
			c-0.5,0-0.9-0.1-1.3-0.4c-3.9-2.2-7.8-4.5-11.7-6.7c-0.2-0.1-0.3-0.3-0.5-0.4c0-0.1,0.1-0.1,0.1-0.2c1.2-0.1,2.3-0.1,3.5-0.1
			s2.3,0,3.5,0s2.3,0.1,3.5-0.1c0-22.9,0-45.7,0-68.5c-0.1,0-0.1-0.1-0.2-0.1c-11.5,19.8-22.9,39.5-34.4,59.4
			C119.8,157.5,141.2,169.7,162.6,182C162.5,182.1,162.6,182.1,162.6,182z M122,141.9L122,141.9L122,141.9c-1.1-0.8-2.2-1.7-3.4-2.6
			c-0.1,0.2-0.2,0.3-0.3,0.5c-0.5,0.8-1,1.5-1.4,2.3c0,0.1-0.1,0.1-0.1,0.2c-0.1-0.2-0.2-0.6-0.4-0.9c-0.5-0.6-0.9-1.3-1.3-2
			c-0.5,0.4-1.1,0.9-1.6,1.2s-1,0.8-1.5,1.2c-0.1,0-0.1-0.1-0.2-0.2l0,0l0,0c0.5-0.6,1-1.2,1.6-1.8c0.3-0.4,0.7-0.7,1-1.1
			c-0.9-1-2-1.1-3-1.1c-1.1-0.1-4.5-0.4-5.5-0.5l0,0l0,0c0.2,0,0.5,0,0.8,0l0,0c0.2,0,0.4,0,0.6,0c0.4,0,0.8,0,1.2-0.1
			c1.1-0.1,2.1-0.1,2.6-0.1c0.3,0,0.6-0.1,1-0.1c1,0,1.6-0.4,2.3-1c-0.9-1.1-1.8-2.2-2.8-3.3l0,0l0.1-0.1l0,0
			c1.2,0.9,2.3,1.8,3.5,2.6c0.9-1,1.5-2,1.6-3.4l0,0l0,0c0.2,1.3,0.8,2.3,1.8,3.4c1-0.7,2-1.4,2.9-2.2c0.2-0.2,0.4-0.3,0.6-0.4l0,0
			l0,0l0.1,0.1c-0.9,1-1.8,2.1-2.8,3.2c0.6,0.4,1.1,1,1.9,1c1.1,0.1,2.2,0.2,3.4,0.3c0.4,0,3.3,0.1,4.7,0.3l0,0l0,0
			c-0.2,0-0.4,0-0.6,0.1c-0.2,0-0.3,0-0.5,0c-0.1,0-0.3,0-0.4,0s-0.2,0-0.3,0c-0.4,0-0.9,0.1-1.4,0.1c-0.2,0-0.4,0-0.7,0
			c-0.2,0-0.3,0-0.5,0s-0.4,0-0.6,0c-1.1,0.1-2.2,0.2-2.7,0.2c-0.6,0-1.1,0.3-1.6,0.6c-0.2,0.1-0.4,0.2-0.6,0.4
			C120.3,139.8,121.1,140.9,122,141.9L122,141.9z"/>
	</g>
	<g class="st3">
		<path class="st2" d="M391.5,45.3c15.8,0,28.6,12.7,28.6,28.5c0,7-2.5,13.5-6.8,18.5c-0.5,0.6-1.1,1.1-1.6,1.7
			c-5.1,5.2-12.3,8.4-20.1,8.4H363V45.2L391.5,45.3z M373.1,92.3h18.4c10.1,0,18.4-8.3,18.4-18.4c0-10.1-8.3-18.4-18.4-18.4h-18.4
			V92.3z"/>
		<path class="st2" d="M474.5,92.3l5.2,10.2h-11.4l-5.2-10.2l-5.5-10.7l-0.2-0.5c-1.8-2.9-5-4.9-8.7-4.9h-10.2v26.3h-10.2V45.3h36.1
			c4.2,0,8.1,1.7,10.9,4.5c2.8,2.9,4.5,6.7,4.5,10.9c0,6.2-3.7,11.6-9,14.1c-1.4,0.7-2.9,1.1-4.4,1.2L474.5,92.3z M464.4,65.9
			c0.7,0,1.5-0.2,2.1-0.5c1.9-0.8,3.1-2.7,3.1-4.7c0-1.9-1-3.2-1.6-3.8c-0.7-0.7-1.9-1.5-3.7-1.5h-25.9V66L464.4,65.9z"/>
		<path class="st2" d="M498.2,60.6v5.3H535v10.2h-36.8v10.8c0,2.9,2.4,5.2,5.2,5.2h41.8v10.2h-41.8c-8.5,0-15.4-6.9-15.4-15.4V60.6
			c0-8.5,6.9-15.4,15.4-15.4h41.8v10.2h-41.8C500.6,55.4,498.2,57.8,498.2,60.6z"/>
		<path class="st2" d="M608.5,102.4h-11.4l-5.2-10.2l-12.5-24.5l-12.5,24.5l-5.2,10.2h-11.4l5.2-10.2l23.9-47l23.9,47L608.5,102.4z"
			/>
		<path class="st2" d="M670.6,45.2v57.2h-10.2V65.9l-10.1,7.7l-8.3,6.5l-8.3-6.5l-10.1-7.7v36.4h-10.2V45.2l10.2,7.8L642,67.2
			L660.4,53L670.6,45.2z"/>
	</g>
	<g class="st3">
		<path class="st2" d="M420.2,110.8V168H410v-26.2h-36.8V168H363v-57.2h10.2v20.8H410v-20.8H420.2z"/>
		<path class="st2" d="M504.5,110.8v28.6c0,15.8-12.8,28.6-28.6,28.6c-15.8,0-28.6-12.8-28.6-28.6v-28.6h10.2v28.6
			c0,10.1,8.3,18.4,18.4,18.4c10.1,0,18.4-8.3,18.4-18.4v-28.6H504.5z"/>
		<path class="st2" d="M588.8,149.8c0,10.1-8.2,18.2-18.2,18.2h-39v-57.2h36c8.5,0,15.4,6.9,15.4,15.4c0,3.1-0.9,6-2.5,8.3
			C585.6,137.8,588.8,143.4,588.8,149.8z M541.8,131.5h25.9c2.9,0,5.2-2.4,5.2-5.2c0-2.9-2.4-5.2-5.2-5.2h-25.9V131.5z M570.6,157.7
			c4.4,0,8-3.6,8-8c0-4.4-3.6-8-8-8h-28.8v16.1L570.6,157.7L570.6,157.7z"/>
		<path class="st2" d="M624.1,126.2v5.3h36.8v10.2h-36.8v10.8c0,2.9,2.4,5.2,5.2,5.2h41.8V168h-41.8c-8.5,0-15.4-6.9-15.4-15.4
			v-26.3c0-8.5,6.9-15.4,15.4-15.4h41.8V121h-41.8C626.5,121,624.1,123.4,624.1,126.2z"/>
	</g>
	<path class="st2" d="M303.1,39.4L303.1,39.4L303.1,39.4l-4.1,66.3c-0.1,1.3-0.1,2.7,0,4l4.1,66.8l0,0l0,0l4.1-66.8
		c0.1-1.3,0.1-2.7,0-4L303.1,39.4z"/>
</g>
</svg>
