<?xml version="1.0" encoding="utf-8"?>
<!-- Generator: Adobe Illustrator 25.3.0, SVG Export Plug-In . SVG Version: 6.00 Build 0)  -->
<svg version="1.1" id="Capa_1" xmlns="http://www.w3.org/2000/svg" xmlns:xlink="http://www.w3.org/1999/xlink" x="0px" y="0px"
	 viewBox="0 0 689 216" style="enable-background:new 0 0 689 216;" xml:space="preserve">
<style type="text/css">
	.st0{fill:url(#SVGID_1_);}
	.st1{fill:url(#SVGID_2_);}
	.st2{fill:url(#SVGID_3_);}
	.st3{fill:url(#SVGID_4_);}
	.st4{fill:url(#SVGID_5_);}
	.st5{fill:url(#SVGID_6_);}
	.st6{fill:url(#SVGID_7_);}
	.st7{fill:url(#SVGID_8_);}
	.st8{fill:url(#SVGID_9_);}
	.st9{fill:url(#SVGID_10_);}
	.st10{fill:url(#SVGID_11_);}
	.st11{fill:url(#SVGID_12_);}
	.st12{fill:url(#SVGID_13_);}
	.st13{fill:url(#SVGID_14_);}
	.st14{enable-background:new    ;}
</style>
<g>
	<g>
		
			<linearGradient id="SVGID_1_" gradientUnits="userSpaceOnUse" x1="119.9386" y1="78.15" x2="124.2813" y2="78.15" gradientTransform="matrix(1 0 0 -1 0 216)">
			<stop  offset="5.193929e-02" style="stop-color:#00E4E3"/>
			<stop  offset="0.2033" style="stop-color:#6A4FEB"/>
			<stop  offset="0.2198" style="stop-color:#5943C6"/>
			<stop  offset="0.2413" style="stop-color:#47359D"/>
			<stop  offset="0.2654" style="stop-color:#362877"/>
			<stop  offset="0.2917" style="stop-color:#271D57"/>
			<stop  offset="0.3208" style="stop-color:#1B143B"/>
			<stop  offset="0.3536" style="stop-color:#110D25"/>
			<stop  offset="0.3919" style="stop-color:#090714"/>
			<stop  offset="0.4393" style="stop-color:#040309"/>
			<stop  offset="0.5057" style="stop-color:#010102"/>
			<stop  offset="0.6901" style="stop-color:#000000"/>
		</linearGradient>
		<path class="st0" d="M120,138.3c0.5-0.3,1-0.6,1.6-0.6c0.5-0.1,1.6-0.2,2.7-0.2c-1.1,0.1-2.2,0.2-2.7,0.2
			C121,137.7,120.5,138,120,138.3z"/>
		
			<linearGradient id="SVGID_2_" gradientUnits="userSpaceOnUse" x1="115.1955" y1="82.75" x2="116.8279" y2="82.75" gradientTransform="matrix(1 0 0 -1 0 216)">
			<stop  offset="5.193929e-02" style="stop-color:#00E4E3"/>
			<stop  offset="0.2033" style="stop-color:#6A4FEB"/>
			<stop  offset="0.2198" style="stop-color:#5943C6"/>
			<stop  offset="0.2413" style="stop-color:#47359D"/>
			<stop  offset="0.2654" style="stop-color:#362877"/>
			<stop  offset="0.2917" style="stop-color:#271D57"/>
			<stop  offset="0.3208" style="stop-color:#1B143B"/>
			<stop  offset="0.3536" style="stop-color:#110D25"/>
			<stop  offset="0.3919" style="stop-color:#090714"/>
			<stop  offset="0.4393" style="stop-color:#040309"/>
			<stop  offset="0.5057" style="stop-color:#010102"/>
			<stop  offset="0.6901" style="stop-color:#000000"/>
		</linearGradient>
		<path class="st1" d="M116.9,131.6L116.9,131.6c-0.2,1.3-0.8,2.3-1.6,3.4l0,0C116.1,133.9,116.7,132.9,116.9,131.6z"/>
		
			<linearGradient id="SVGID_3_" gradientUnits="userSpaceOnUse" x1="124.9589" y1="78.6499" x2="125.4825" y2="78.6499" gradientTransform="matrix(1 0 0 -1 0 216)">
			<stop  offset="5.193929e-02" style="stop-color:#00E4E3"/>
			<stop  offset="0.2033" style="stop-color:#6A4FEB"/>
			<stop  offset="0.2198" style="stop-color:#5943C6"/>
			<stop  offset="0.2413" style="stop-color:#47359D"/>
			<stop  offset="0.2654" style="stop-color:#362877"/>
			<stop  offset="0.2917" style="stop-color:#271D57"/>
			<stop  offset="0.3208" style="stop-color:#1B143B"/>
			<stop  offset="0.3536" style="stop-color:#110D25"/>
			<stop  offset="0.3919" style="stop-color:#090714"/>
			<stop  offset="0.4393" style="stop-color:#040309"/>
			<stop  offset="0.5057" style="stop-color:#010102"/>
			<stop  offset="0.6901" style="stop-color:#000000"/>
		</linearGradient>
		<path class="st2" d="M125.5,137.4c-0.2,0-0.3,0-0.5,0C125.1,137.4,125.3,137.4,125.5,137.4z"/>
		
			<linearGradient id="SVGID_4_" gradientUnits="userSpaceOnUse" x1="118.2718" y1="75.45" x2="121.937" y2="75.45" gradientTransform="matrix(1 0 0 -1 0 216)">
			<stop  offset="5.193929e-02" style="stop-color:#00E4E3"/>
			<stop  offset="0.2033" style="stop-color:#6A4FEB"/>
			<stop  offset="0.2198" style="stop-color:#5943C6"/>
			<stop  offset="0.2413" style="stop-color:#47359D"/>
			<stop  offset="0.2654" style="stop-color:#362877"/>
			<stop  offset="0.2917" style="stop-color:#271D57"/>
			<stop  offset="0.3208" style="stop-color:#1B143B"/>
			<stop  offset="0.3536" style="stop-color:#110D25"/>
			<stop  offset="0.3919" style="stop-color:#090714"/>
			<stop  offset="0.4393" style="stop-color:#040309"/>
			<stop  offset="0.5057" style="stop-color:#010102"/>
			<stop  offset="0.6901" style="stop-color:#000000"/>
		</linearGradient>
		<path class="st3" d="M118.3,139.8c0.1-0.2,0.2-0.3,0.3-0.5c1.2,0.9,2.2,1.8,3.4,2.6l0,0c-1.1-0.8-2.2-1.7-3.4-2.6
			C118.5,139.5,118.4,139.6,118.3,139.8z"/>
		
			<linearGradient id="SVGID_5_" gradientUnits="userSpaceOnUse" x1="126.1293" y1="78.7" x2="127.4845" y2="78.7" gradientTransform="matrix(1 0 0 -1 0 216)">
			<stop  offset="5.193929e-02" style="stop-color:#00E4E3"/>
			<stop  offset="0.2033" style="stop-color:#6A4FEB"/>
			<stop  offset="0.2198" style="stop-color:#5943C6"/>
			<stop  offset="0.2413" style="stop-color:#47359D"/>
			<stop  offset="0.2654" style="stop-color:#362877"/>
			<stop  offset="0.2917" style="stop-color:#271D57"/>
			<stop  offset="0.3208" style="stop-color:#1B143B"/>
			<stop  offset="0.3536" style="stop-color:#110D25"/>
			<stop  offset="0.3919" style="stop-color:#090714"/>
			<stop  offset="0.4393" style="stop-color:#040309"/>
			<stop  offset="0.5057" style="stop-color:#010102"/>
			<stop  offset="0.6901" style="stop-color:#000000"/>
		</linearGradient>
		<path class="st4" d="M127.5,137.3c-0.4,0-0.9,0.1-1.4,0.1C126.7,137.3,127.1,137.3,127.5,137.3z"/>
		
			<linearGradient id="SVGID_6_" gradientUnits="userSpaceOnUse" x1="111.746" y1="75.1999" x2="116.8587" y2="75.1999" gradientTransform="matrix(1 0 0 -1 0 216)">
			<stop  offset="5.193929e-02" style="stop-color:#00E4E3"/>
			<stop  offset="0.2033" style="stop-color:#6A4FEB"/>
			<stop  offset="0.2198" style="stop-color:#5943C6"/>
			<stop  offset="0.2413" style="stop-color:#47359D"/>
			<stop  offset="0.2654" style="stop-color:#362877"/>
			<stop  offset="0.2917" style="stop-color:#271D57"/>
			<stop  offset="0.3208" style="stop-color:#1B143B"/>
			<stop  offset="0.3536" style="stop-color:#110D25"/>
			<stop  offset="0.3919" style="stop-color:#090714"/>
			<stop  offset="0.4393" style="stop-color:#040309"/>
			<stop  offset="0.5057" style="stop-color:#010102"/>
			<stop  offset="0.6901" style="stop-color:#000000"/>
		</linearGradient>
		<path class="st5" d="M116.4,141.4c-0.5-0.6-0.9-1.3-1.3-2c-0.5,0.4-1.1,0.9-1.6,1.2c-0.5,0.4-1,0.8-1.5,1.2
			c-0.1,0-0.1-0.1-0.2-0.2l0,0c0.1,0.1,0.1,0.2,0.2,0.2c0.5-0.4,1-0.8,1.5-1.2s1.1-0.8,1.6-1.2C115.5,140.1,116,140.8,116.4,141.4
			c0.2,0.3,0.3,0.6,0.4,0.9c0-0.1,0.1-0.1,0.1-0.2c0,0.1-0.1,0.1-0.1,0.2C116.7,142,116.6,141.7,116.4,141.4z"/>
		
			<linearGradient id="SVGID_7_" gradientUnits="userSpaceOnUse" x1="105.8017" y1="77.7" x2="114.2715" y2="77.7" gradientTransform="matrix(1 0 0 -1 0 216)">
			<stop  offset="5.193929e-02" style="stop-color:#00E4E3"/>
			<stop  offset="0.2033" style="stop-color:#6A4FEB"/>
			<stop  offset="0.2198" style="stop-color:#5943C6"/>
			<stop  offset="0.2413" style="stop-color:#47359D"/>
			<stop  offset="0.2654" style="stop-color:#362877"/>
			<stop  offset="0.2917" style="stop-color:#271D57"/>
			<stop  offset="0.3208" style="stop-color:#1B143B"/>
			<stop  offset="0.3536" style="stop-color:#110D25"/>
			<stop  offset="0.3919" style="stop-color:#090714"/>
			<stop  offset="0.4393" style="stop-color:#040309"/>
			<stop  offset="0.5057" style="stop-color:#010102"/>
			<stop  offset="0.6901" style="stop-color:#000000"/>
		</linearGradient>
		<path class="st6" d="M111.3,137.5c-1.1-0.1-4.5-0.4-5.5-0.5l0,0C106.8,137.2,110.2,137.4,111.3,137.5c1,0,2.1,0.2,3,1.1
			c-0.3,0.4-0.6,0.8-1,1.1c0.3-0.4,0.7-0.7,1-1.1C113.4,137.7,112.3,137.5,111.3,137.5z"/>
		
			<linearGradient id="SVGID_8_" gradientUnits="userSpaceOnUse" x1="106.5718" y1="79.05" x2="106.5718" y2="79.05" gradientTransform="matrix(1 0 0 -1 0 216)">
			<stop  offset="5.193929e-02" style="stop-color:#00E4E3"/>
			<stop  offset="0.2033" style="stop-color:#6A4FEB"/>
			<stop  offset="0.2198" style="stop-color:#5943C6"/>
			<stop  offset="0.2413" style="stop-color:#47359D"/>
			<stop  offset="0.2654" style="stop-color:#362877"/>
			<stop  offset="0.2917" style="stop-color:#271D57"/>
			<stop  offset="0.3208" style="stop-color:#1B143B"/>
			<stop  offset="0.3536" style="stop-color:#110D25"/>
			<stop  offset="0.3919" style="stop-color:#090714"/>
			<stop  offset="0.4393" style="stop-color:#040309"/>
			<stop  offset="0.5057" style="stop-color:#010102"/>
			<stop  offset="0.6901" style="stop-color:#000000"/>
		</linearGradient>
		<path class="st7" d="M106.6,137L106.6,137L106.6,137z"/>
		
			<linearGradient id="SVGID_9_" gradientUnits="userSpaceOnUse" x1="107.2493" y1="79.1999" x2="108.4813" y2="79.1999" gradientTransform="matrix(1 0 0 -1 0 216)">
			<stop  offset="5.193929e-02" style="stop-color:#00E4E3"/>
			<stop  offset="0.2033" style="stop-color:#6A4FEB"/>
			<stop  offset="0.2198" style="stop-color:#5943C6"/>
			<stop  offset="0.2413" style="stop-color:#47359D"/>
			<stop  offset="0.2654" style="stop-color:#362877"/>
			<stop  offset="0.2917" style="stop-color:#271D57"/>
			<stop  offset="0.3208" style="stop-color:#1B143B"/>
			<stop  offset="0.3536" style="stop-color:#110D25"/>
			<stop  offset="0.3919" style="stop-color:#090714"/>
			<stop  offset="0.4393" style="stop-color:#040309"/>
			<stop  offset="0.5057" style="stop-color:#010102"/>
			<stop  offset="0.6901" style="stop-color:#000000"/>
		</linearGradient>
		<path class="st8" d="M107.3,136.9c0.4,0,0.8,0,1.2-0.1C108.1,136.9,107.6,136.9,107.3,136.9z"/>
		
			<linearGradient id="SVGID_10_" gradientUnits="userSpaceOnUse" x1="128.7164" y1="78.9" x2="129.3324" y2="78.9" gradientTransform="matrix(1 0 0 -1 0 216)">
			<stop  offset="5.193929e-02" style="stop-color:#00E4E3"/>
			<stop  offset="0.2033" style="stop-color:#6A4FEB"/>
			<stop  offset="0.2198" style="stop-color:#5943C6"/>
			<stop  offset="0.2413" style="stop-color:#47359D"/>
			<stop  offset="0.2654" style="stop-color:#362877"/>
			<stop  offset="0.2917" style="stop-color:#271D57"/>
			<stop  offset="0.3208" style="stop-color:#1B143B"/>
			<stop  offset="0.3536" style="stop-color:#110D25"/>
			<stop  offset="0.3919" style="stop-color:#090714"/>
			<stop  offset="0.4393" style="stop-color:#040309"/>
			<stop  offset="0.5057" style="stop-color:#010102"/>
			<stop  offset="0.6901" style="stop-color:#000000"/>
		</linearGradient>
		<path class="st9" d="M129.4,137.1L129.4,137.1c-0.2,0-0.4,0-0.6,0.1C129,137.1,129.2,137.1,129.4,137.1z"/>
		
			<linearGradient id="SVGID_11_" gradientUnits="userSpaceOnUse" x1="121.5094" y1="83.55" x2="122.0637" y2="83.55" gradientTransform="matrix(1 0 0 -1 0 216)">
			<stop  offset="5.193929e-02" style="stop-color:#00E4E3"/>
			<stop  offset="0.2033" style="stop-color:#6A4FEB"/>
			<stop  offset="0.2198" style="stop-color:#5943C6"/>
			<stop  offset="0.2413" style="stop-color:#47359D"/>
			<stop  offset="0.2654" style="stop-color:#362877"/>
			<stop  offset="0.2917" style="stop-color:#271D57"/>
			<stop  offset="0.3208" style="stop-color:#1B143B"/>
			<stop  offset="0.3536" style="stop-color:#110D25"/>
			<stop  offset="0.3919" style="stop-color:#090714"/>
			<stop  offset="0.4393" style="stop-color:#040309"/>
			<stop  offset="0.5057" style="stop-color:#010102"/>
			<stop  offset="0.6901" style="stop-color:#000000"/>
		</linearGradient>
		<path class="st10" d="M122.1,132.3c-0.2,0.1-0.4,0.3-0.6,0.4C121.7,132.6,121.9,132.5,122.1,132.3L122.1,132.3z"/>
		
			<linearGradient id="SVGID_12_" gradientUnits="userSpaceOnUse" x1="127.8232" y1="78.8499" x2="128.2544" y2="78.8499" gradientTransform="matrix(1 0 0 -1 0 216)">
			<stop  offset="5.193929e-02" style="stop-color:#00E4E3"/>
			<stop  offset="0.2033" style="stop-color:#6A4FEB"/>
			<stop  offset="0.2198" style="stop-color:#5943C6"/>
			<stop  offset="0.2413" style="stop-color:#47359D"/>
			<stop  offset="0.2654" style="stop-color:#362877"/>
			<stop  offset="0.2917" style="stop-color:#271D57"/>
			<stop  offset="0.3208" style="stop-color:#1B143B"/>
			<stop  offset="0.3536" style="stop-color:#110D25"/>
			<stop  offset="0.3919" style="stop-color:#090714"/>
			<stop  offset="0.4393" style="stop-color:#040309"/>
			<stop  offset="0.5057" style="stop-color:#010102"/>
			<stop  offset="0.6901" style="stop-color:#000000"/>
		</linearGradient>
		<path class="st11" d="M128.3,137.2c-0.1,0-0.3,0-0.4,0C128,137.2,128.1,137.2,128.3,137.2z"/>
		
			<linearGradient id="SVGID_13_" gradientUnits="userSpaceOnUse" x1="111.5612" y1="81.9999" x2="114.3612" y2="81.9999" gradientTransform="matrix(1 0 0 -1 0 216)">
			<stop  offset="5.193929e-02" style="stop-color:#00E4E3"/>
			<stop  offset="0.2033" style="stop-color:#6A4FEB"/>
			<stop  offset="0.2198" style="stop-color:#5943C6"/>
			<stop  offset="0.2413" style="stop-color:#47359D"/>
			<stop  offset="0.2654" style="stop-color:#362877"/>
			<stop  offset="0.2917" style="stop-color:#271D57"/>
			<stop  offset="0.3208" style="stop-color:#1B143B"/>
			<stop  offset="0.3536" style="stop-color:#110D25"/>
			<stop  offset="0.3919" style="stop-color:#090714"/>
			<stop  offset="0.4393" style="stop-color:#040309"/>
			<stop  offset="0.5057" style="stop-color:#010102"/>
			<stop  offset="0.6901" style="stop-color:#000000"/>
		</linearGradient>
		<path class="st12" d="M111.6,132.4L111.6,132.4c1,1.1,1.9,2.2,2.8,3.3l0,0C113.5,134.6,112.5,133.5,111.6,132.4z"/>
		
			<linearGradient id="SVGID_14_" gradientUnits="userSpaceOnUse" x1="36.7461" y1="-739.438" x2="93.9158" y2="-639.4877" gradientTransform="matrix(1 0 0 1 0 784)">
			<stop  offset="5.193929e-02" style="stop-color:#00E4E3"/>
			<stop  offset="0.2033" style="stop-color:#6A4FEB"/>
			<stop  offset="0.2198" style="stop-color:#5943C6"/>
			<stop  offset="0.2413" style="stop-color:#47359D"/>
			<stop  offset="0.2654" style="stop-color:#362877"/>
			<stop  offset="0.2917" style="stop-color:#271D57"/>
			<stop  offset="0.3208" style="stop-color:#1B143B"/>
			<stop  offset="0.3536" style="stop-color:#110D25"/>
			<stop  offset="0.3919" style="stop-color:#090714"/>
			<stop  offset="0.4393" style="stop-color:#040309"/>
			<stop  offset="0.5057" style="stop-color:#010102"/>
			<stop  offset="0.6901" style="stop-color:#000000"/>
		</linearGradient>
		<path class="st13" d="M17.3,184.5c0.1,0.1,0.1,0.1,0.2,0.1c0.2-0.2,0.5-0.4,0.7-0.6c4-4,8.1-8.1,12.2-12.1
			c7.3-7.3,14.6-14.6,21.9-21.8c9.9-9.8,19.7-19.6,29.6-29.5c7-7,14-13.9,20.9-20.8c2.6-2.6,5.3-5.2,7.9-7.8
			c7.2-7.1,14.3-14.2,21.4-21.3c0.4-0.4,0.5-0.8,0.3-1.3c-0.1-0.2-0.1-0.3-0.1-0.5l-13.5-49.8c-0.6-5.9-3.1-12.5-9.4-19
			c3.8,9.2,3.8,15.5,2.9,20.6C80.5,75.4,48.9,129.9,17.3,184.5z"/>
		<path d="M79.2,162.1c0.7,0.5,60.9,16.6,61.9,16.6c-17.8-10.3-35.5-20.4-53.3-30.6c10.3-17.7,20.4-35.3,30.6-52.8
			c0,0,0-0.1-0.1-0.1l-0.1-0.1c-2.4,2.1-58.9,58.5-59.4,59.4c0.5,0,0.9,0,1.2,0c10.1,0,20.3,0,30.4,0c0.7,0,1.2,0.2,1.8,0.5
			c3.8,2.2,7.5,4.3,11.4,6.5c0.3,0.1,0.5,0.3,0.7,0.5c0,0.1-0.1,0.1-0.1,0.2C95.9,162.1,87.6,162.1,79.2,162.1z"/>
		<path d="M207.7,204.7C207.7,204.7,207.7,204.6,207.7,204.7c-0.2-0.2-0.4-0.2-0.7-0.3c-3.2-0.9-6.5-1.8-9.8-2.6
			c-23-6.2-46-12.3-68.9-18.4c-25.6-6.8-51.3-13.7-76.9-20.5c-0.7-0.2-1.2-0.1-1.8,0.5c-4.3,4.3-8.7,8.7-13.1,13.1
			c-2.7,2.7-5.4,5.4-8.2,8.1c-2.9,2.9-5.9,5.9-8.8,8.8c-5.9,5.1-8.3,11.7-24.6,13.8c14.8,0.8,23.7-0.3,29.1-2.3
			C85.4,204.7,146.5,204.7,207.7,204.7z"/>
		<path d="M136.1,54.1c6.9,25.6,13.8,51.2,20.6,76.8c4.9,18.4,9.9,36.8,14.8,55.2c0.2,0.7,0.5,1,1.2,1.2c15.1,4,30.2,8.1,45.3,12.1
			c5,2.6,10.5,6.6,15.6,16.6c-0.5-5.5-2-9.9-4-13.5l0,0l0,0c-0.2-0.2-0.3-0.5-0.4-0.7L130,30.3c-0.1,0.4-0.1,0.7,0.1,1
			C132,38.9,134,46.5,136.1,54.1z"/>
		<path d="M162.5,182c-7.3-26.9-14.5-53.9-21.7-80.8c-0.1,0-0.2,0-0.3,0c0,20.3,0,40.6,0,61c-1.6,0-3.2,0.1-4.7,0
			c-0.5,0-0.9-0.1-1.3-0.4c-3.9-2.2-7.8-4.5-11.7-6.7c-0.2-0.1-0.3-0.3-0.5-0.4c0-0.1,0.1-0.1,0.1-0.2c1.2-0.1,2.3-0.1,3.5-0.1
			s2.3,0,3.5,0s2.3,0.1,3.5-0.1c0-22.9,0-45.7,0-68.5c-0.1,0-0.1-0.1-0.2-0.1c-11.5,19.8-22.9,39.5-34.4,59.4
			C119.7,157.5,141.1,169.7,162.5,182C162.5,182.1,162.5,182,162.5,182z M121.9,141.9L121.9,141.9L121.9,141.9
			c-1.1-0.8-2.2-1.7-3.4-2.6c-0.1,0.2-0.2,0.3-0.3,0.5c-0.5,0.8-1,1.5-1.4,2.3c0,0.1-0.1,0.1-0.1,0.2c-0.1-0.2-0.2-0.6-0.4-0.9
			c-0.5-0.6-0.9-1.3-1.3-2c-0.5,0.4-1.1,0.9-1.6,1.2c-0.5,0.4-1,0.8-1.5,1.2c-0.1,0-0.1-0.1-0.2-0.2l0,0l0,0c0.5-0.6,1-1.2,1.6-1.8
			c0.3-0.4,0.7-0.7,1-1.1c-0.9-1-2-1.1-3-1.1c-1.1-0.1-4.5-0.4-5.5-0.5l0,0l0,0c0.2,0,0.5,0,0.8,0l0,0c0.2,0,0.4,0,0.6,0
			c0.4,0,0.8,0,1.2-0.1c1.1-0.1,2.1-0.1,2.6-0.1c0.3,0,0.6-0.1,1-0.1c1,0,1.6-0.4,2.3-1c-0.9-1.1-1.8-2.2-2.8-3.3l0,0l0.1-0.1l0,0
			c1.2,0.9,2.3,1.8,3.5,2.6c0.9-1,1.5-2,1.6-3.4l0,0l0,0c0.2,1.3,0.8,2.3,1.8,3.4c1-0.7,2-1.4,2.9-2.2c0.2-0.2,0.4-0.3,0.6-0.4l0,0
			l0,0l0.1,0.1c-0.9,1-1.8,2.1-2.8,3.2c0.6,0.4,1.1,1,1.9,1c1.1,0.1,2.2,0.2,3.4,0.3c0.4,0,3.3,0.1,4.7,0.3l0,0l0,0
			c-0.2,0-0.4,0-0.6,0.1c-0.2,0-0.3,0-0.5,0c-0.1,0-0.3,0-0.4,0s-0.2,0-0.3,0c-0.4,0-0.9,0.1-1.4,0.1c-0.2,0-0.4,0-0.7,0
			c-0.2,0-0.3,0-0.5,0s-0.4,0-0.6,0c-1.1,0.1-2.2,0.2-2.7,0.2c-0.6,0-1.1,0.3-1.6,0.6c-0.2,0.1-0.4,0.2-0.6,0.4
			C120.2,139.8,121.1,140.9,121.9,141.9L121.9,141.9z"/>
	</g>
	<g class="st14">
		<path d="M391.5,45.2c15.8,0,28.6,12.7,28.6,28.5c0,7-2.5,13.5-6.8,18.5c-0.5,0.6-1.1,1.1-1.6,1.7c-5.1,5.2-12.3,8.4-20.1,8.4H363
			V45.1L391.5,45.2z M373.1,92.2h18.4c10.1,0,18.4-8.3,18.4-18.4c0-10.1-8.3-18.4-18.4-18.4h-18.4V92.2z"/>
		<path d="M474.5,92.2l5.2,10.2h-11.4l-5.2-10.2l-5.5-10.7l-0.2-0.5c-1.8-2.9-5-4.9-8.7-4.9h-10.2v26.3h-10.2V45.2h36.1
			c4.2,0,8.1,1.7,10.9,4.5c2.8,2.9,4.5,6.7,4.5,10.9c0,6.2-3.7,11.6-9,14.1c-1.4,0.7-2.9,1.1-4.4,1.2L474.5,92.2z M464.4,65.9
			c0.7,0,1.5-0.2,2.1-0.5c1.9-0.8,3.1-2.7,3.1-4.7c0-1.9-1-3.2-1.6-3.8c-0.7-0.7-1.9-1.5-3.7-1.5h-25.9v10.5L464.4,65.9z"/>
		<path d="M498.2,60.6v5.3H535v10.2h-36.8v10.8c0,2.9,2.4,5.2,5.2,5.2h41.8v10.2h-41.8c-8.5,0-15.4-6.9-15.4-15.4V60.6
			c0-8.5,6.9-15.4,15.4-15.4h41.8v10.2h-41.8C500.6,55.3,498.2,57.7,498.2,60.6z"/>
		<path d="M608.5,102.3h-11.4l-5.2-10.2l-12.5-24.5l-12.5,24.5l-5.2,10.2h-11.4l5.2-10.2l23.9-47l23.9,47L608.5,102.3z"/>
		<path d="M670.6,45.1v57.2h-10.2V65.9l-10,7.7L642,80l-8.3-6.5l-10-7.7v36.4h-10.2V45.1l10.2,7.8L642,67.1L660.4,53L670.6,45.1z"/>
	</g>
	<g class="st14">
		<path d="M420.2,110.7v57.2h-10.2v-26.2h-36.8v26.2H363v-57.2h10.2v20.8h36.8v-20.8H420.2z"/>
		<path d="M504.5,110.7v28.6c0,15.8-12.8,28.6-28.6,28.6s-28.6-12.8-28.6-28.6v-28.6h10.2v28.6c0,10.1,8.3,18.4,18.4,18.4
			s18.4-8.3,18.4-18.4v-28.6H504.5z"/>
		<path d="M588.8,149.7c0,10.1-8.2,18.2-18.2,18.2h-39v-57.2h36c8.5,0,15.4,6.9,15.4,15.4c0,3.1-0.9,6-2.5,8.3
			C585.5,137.8,588.8,143.3,588.8,149.7z M541.8,131.4h25.9c2.9,0,5.2-2.4,5.2-5.2c0-2.9-2.4-5.2-5.2-5.2h-25.9V131.4z M570.6,157.6
			c4.4,0,8-3.6,8-8c0-4.4-3.6-8-8-8h-28.8v16.1L570.6,157.6L570.6,157.6z"/>
		<path d="M624.1,126.2v5.3h36.8v10.2h-36.8v10.8c0,2.9,2.4,5.2,5.2,5.2h41.8v10.2h-41.8c-8.5,0-15.4-6.9-15.4-15.4v-26.3
			c0-8.5,6.9-15.4,15.4-15.4h41.8v10.2h-41.8C626.5,120.9,624.1,123.3,624.1,126.2z"/>
	</g>
	<path d="M303.1,39.4L303.1,39.4L303.1,39.4l-4.1,66.3c-0.1,1.3-0.1,2.7,0,4l4.1,66.8l0,0l0,0l4.1-66.8c0.1-1.3,0.1-2.7,0-4
		L303.1,39.4z"/>
</g>
</svg>
